<?xml version="1.0" standalone="no"?>
<!DOCTYPE svg PUBLIC "-//W3C//DTD SVG 20010904//EN"
 "http://www.w3.org/TR/2001/REC-SVG-20010904/DTD/svg10.dtd">
<svg version="1.0" xmlns="http://www.w3.org/2000/svg"
 width="72.000000pt" height="72.000000pt" viewBox="0 0 72.000000 72.000000"
 preserveAspectRatio="xMidYMid meet">
<metadata>
Created by potrace 1.14, written by Peter Selinger 2001-2017
</metadata>
<g transform="translate(0.000000,72.000000) scale(0.100000,-0.100000)"
fill="#000000" stroke="none">
<path d="M170 710 c-55 -8 -90 -22 -135 -53 l-35 -24 43 -10 c37 -10 105 -33
116 -40 3 -2 -7 -16 -22 -31 -14 -15 -38 -53 -52 -84 -55 -121 -24 -270 80
-373 61 -61 121 -87 210 -91 119 -4 208 38 282 135 44 57 63 126 60 219 -3 85
-24 137 -74 184 -32 31 -107 66 -149 71 -16 2 -39 9 -51 15 -17 9 -22 9 -27
-4 -5 -12 -16 -6 -57 29 -28 25 -65 47 -83 50 -17 3 -38 7 -46 10 -8 2 -35 1
-60 -3z"/>
</g>
</svg>
